PathFileType	4	(X/Y/Z)	/Users/itak/Documents/Research/Walk-IL/dataset/trc/00050_00006.trc
DataRate	CameraRate	NumFrames	NumMarkers	Units	OrigDataRate	OrigDataStartFrame	OrigNumFrames
100.000000	100.000000	4	53	mm	100.000000	0	513
Frame#	Time	RPSI			LPSI			L3			STRN			T10			C7			CLAV			RBAK			LBAK			LSHO			LUPA			LAEL			LAOL			LWTS			LWPS			LFRA			LIFD			LHPS			LHTS			RSHO			RUPA			RAEL			RAOL			RWTS			RWPS			RFRA			RIFD			RHTS			RHPS			RBHD			LFHD			RFHD			LBHD			LHIP			RHIP			RASI			LASI			LKNE			LTHI			LANK			LTIP			LTOE			LMT1			LMT5			LHEE			RKNE			RTHI			RANK			RTIP			RTOE			RMT1			RMT5			RHEE			
		X1	Y1	Z1	X2	Y2	Z2	X3	Y3	Z3	X4	Y4	Z4	X5	Y5	Z5	X6	Y6	Z6	X7	Y7	Z7	X8	Y8	Z8	X9	Y9	Z9	X10	Y10	Z10	X11	Y11	Z11	X12	Y12	Z12	X13	Y13	Z13	X14	Y14	Z14	X15	Y15	Z15	X16	Y16	Z16	X17	Y17	Z17	X18	Y18	Z18	X19	Y19	Z19	X20	Y20	Z20	X21	Y21	Z21	X22	Y22	Z22	X23	Y23	Z23	X24	Y24	Z24	X25	Y25	Z25	X26	Y26	Z26	X27	Y27	Z27	X28	Y28	Z28	X29	Y29	Z29	X30	Y30	Z30	X31	Y31	Z31	X32	Y32	Z32	X33	Y33	Z33	X34	Y34	Z34	X35	Y35	Z35	X36	Y36	Z36	X37	Y37	Z37	X38	Y38	Z38	X39	Y39	Z39	X40	Y40	Z40	X41	Y41	Z41	X42	Y42	Z42	X43	Y43	Z43	X44	Y44	Z44	X45	Y45	Z45	X46	Y46	Z46	X47	Y47	Z47	X48	Y48	Z48	X49	Y49	Z49	X50	Y50	Z50	X51	Y51	Z51	X52	Y52	Z52	X53	Y53	Z53	

1	0	900.721923828125	1020.406372070312	-197.3388214111328	882.9459838867188	1011.809631347656	-373.7716369628906	895.3090209960938	1071.703857421875	-291.6900939941406	1137.878295898438	1273.711547851562	-300.2068481445312	871.7214965820312	1205.918334960938	-295.3371276855469	925.2550659179688	1473.696411132812	-308.231689453125	1105.72216796875	1386.87744140625	-305.4764709472656	866.2760620117188	1336.879516601562	-226.6386871337891	903.7221069335938	1432.373046875	-407.7514343261719	1006.547607421875	1434.470581054688	-481.0819702148438	995.1936645507812	1303.9697265625	-553.8671264648438	1029.417602539062	1088.575561523438	-561.893310546875	965.5997924804688	1074.26123046875	-478.0070495605469	1135.77685546875	860.0953979492188	-484.0169372558594	1079.649291992188	841.6950073242188	-544.5380859375	1057.405639648438	980.7582397460938	-562.9029541015625	1161.533203125	677.3384399414062	-457.1434326171875	1117.971069335938	763.5311279296875	-534.876220703125	1163.424194335938	779.2267456054688	-482.3610534667969	993.3722534179688	1443.404174804688	-131.2954254150391	986.8453369140625	1375.495971679688	-64.71353149414062	970.560791015625	1107.59326171875	-34.9369010925293	983.344482421875	1085.957885742188	-131.4878692626953	1119.274658203125	861.66650390625	-80.53931427001953	1053.999633789062	844.0602416992188	-26.02204704284668	987.0803833007812	1028.526123046875	-28.76153373718262	1132.451293945312	674.2846069335938	-100.4479293823242	1147.4580078125	760.82470703125	-82.95161437988281	1095.628662109375	755.1353149414062	-26.20988845825195	959.6820678710938	1648.68603515625	-380.7269897460938	1111.701904296875	1690.244384765625	-232.0013732910156	1129.943969726562	1698.693481445312	-356.5484924316406	949.3076171875	1633.656372070312	-244.5782623291016	990.8452758789062	946.7335815429688	-462.4509582519531	973.5504760742188	953.67041015625	-120.0519256591797	1096.255859375	970.250244140625	-147.7352752685547	1103.564453125	958.6492919921875	-415.2742919921875	1059.544677734375	486.1353759765625	-422.2385864257812	1029.6845703125	626.5044555664062	-455.4637145996094	902.8136596679688	41.59403991699219	-444.3419494628906	972.848388671875	250.3080749511719	-447.4117126464844	1107.574096679688	32.14151382446289	-453.4302978515625	1062.417114257812	31.56909942626953	-395.7627868652344	1002.331176757812	31.58618927001953	-490.3084411621094	855.4419555664062	37.49342346191406	-365.6726684570312	1035.607299804688	506.7670593261719	-148.6882934570312	1051.971313476562	777.189697265625	-114.1161422729492	936.2207641601562	34.61811447143555	-158.6914825439453	1009.9765625	386.2630615234375	-145.6345825195312	1152.975952148438	28.4226245880127	-196.5278778076172	1091.26708984375	34.56597137451172	-236.3952331542969	1060.998901367188	36.01923370361328	-143.3688049316406	887.978515625	36.60956192016602	-214.4073944091797	
2	0.01	900.5985107421875	1020.421264648438	-197.5041046142578	883.1109619140625	1011.80859375	-373.9432067871094	895.3212890625	1071.722900390625	-291.8538513183594	1137.948120117188	1273.672119140625	-300.2665100097656	871.7154541015625	1205.932006835938	-295.4730224609375	925.3888549804688	1473.74267578125	-308.3863220214844	1105.825317382812	1386.847900390625	-305.5375671386719	866.34423828125	1336.914794921875	-226.7860260009766	903.8424072265625	1432.393432617188	-407.8816528320312	1006.73193359375	1434.474853515625	-481.1814575195312	995.4021606445312	1303.963256835938	-553.970458984375	1029.590454101562	1088.55224609375	-561.9215698242188	965.747314453125	1074.2685546875	-478.0657043457031	1135.726928710938	859.9585571289062	-484.0870056152344	1079.640625	841.6372680664062	-544.6309814453125	1057.480834960938	980.7471313476562	-562.9541625976562	1161.246459960938	677.0907592773438	-457.240234375	1117.851684570312	763.4657592773438	-535.0184936523438	1163.26611328125	779.0175170898438	-482.3908386230469	993.4639892578125	1443.3955078125	-131.3919067382812	986.8687133789062	1375.490356445312	-64.84415435791016	970.6104125976562	1107.583251953125	-35.07391738891602	983.3809814453125	1085.950073242188	-131.6132049560547	1119.235595703125	861.6221923828125	-80.69972229003906	1053.965087890625	844.0339965820312	-26.18067169189453	987.0883178710938	1028.513916015625	-28.91014671325684	1132.338134765625	674.2286987304688	-100.6039505004883	1147.370727539062	760.7799682617188	-83.08104705810547	1095.5712890625	755.0957641601562	-26.37887001037598	959.829833984375	1648.714599609375	-380.8616638183594	1111.84326171875	1690.275756835938	-232.1370391845703	1130.080200195312	1698.66357421875	-356.6499328613281	949.4449462890625	1633.675659179688	-244.6843872070312	991.0945434570312	946.7083740234375	-462.539306640625	973.5657958984375	953.6835327148438	-120.1678619384766	1096.251831054688	970.2156372070312	-147.80078125	1103.64111328125	958.6019287109375	-415.3594360351562	1059.58154296875	486.1334228515625	-422.2948913574219	1029.722900390625	626.4971923828125	-455.512939453125	902.812255859375	41.59254837036133	-444.3469848632812	972.8843994140625	250.2995300292969	-447.4510192871094	1107.5732421875	32.1356201171875	-453.4299621582031	1062.427734375	31.57073783874512	-395.7698669433594	1002.343627929688	31.58186912536621	-490.3064880371094	855.4603881835938	37.50991439819336	-365.6750183105469	1035.770385742188	506.7913208007812	-148.7116546630859	1051.971313476562	777.21923828125	-114.205322265625	936.22021484375	34.63422775268555	-158.6940307617188	1010.040832519531	386.2289428710938	-145.7004852294922	1152.980590820312	28.41569900512695	-196.533203125	1091.272705078125	34.55667877197266	-236.4017791748047	1061.00244140625	36.02140045166016	-143.3784027099609	887.9849243164062	36.62743377685547	-214.42724609375	
3	0.02	900.455322265625	1020.437072753906	-197.7185363769531	883.3157348632812	1011.809692382812	-374.1624145507812	895.343017578125	1071.747680664062	-292.0623779296875	1138.0400390625	1273.61962890625	-300.3445129394531	871.71826171875	1205.952514648438	-295.6541442871094	925.561279296875	1473.79736328125	-308.5851135253906	1105.962036132812	1386.810302734375	-305.6204833984375	866.4365844726562	1336.959594726562	-226.9816589355469	904.0012817382812	1432.419921875	-408.0547790527344	1006.973693847656	1434.483154296875	-481.3134460449219	995.67138671875	1303.955444335938	-554.1051635742188	1029.812744140625	1088.5244140625	-561.9645385742188	965.9268188476562	1074.281982421875	-478.1507568359375	1135.643798828125	859.7722778320312	-484.1842041015625	1079.613891601562	841.5599365234375	-544.7652587890625	1057.578857421875	980.7340087890625	-563.0333251953125	1160.846923828125	676.7584838867188	-457.3810424804688	1117.68505859375	763.376220703125	-535.2166748046875	1163.04638671875	778.7481689453125	-482.4477844238281	993.5848999023438	1443.383544921875	-131.5198516845703	986.893798828125	1375.481201171875	-65.01878356933594	970.66943359375	1107.568359375	-35.25570297241211	983.429443359375	1085.93896484375	-131.7813262939453	1119.17919921875	861.56201171875	-80.90882873535156	1053.911010742188	843.9976806640625	-26.39135932922363	987.087158203125	1028.49560546875	-29.11297416687012	1132.1884765625	674.1525268554688	-100.8105392456055	1147.25244140625	760.72314453125	-83.25874328613281	1095.494995117188	755.042236328125	-26.59486961364746	960.0286865234375	1648.751098632812	-381.0343017578125	1112.031860351562	1690.3095703125	-232.3086547851562	1130.262451171875	1698.623046875	-356.7787170410156	949.6220703125	1633.699829101562	-244.8213653564453	991.3406372070312	946.68359375	-462.6648254394531	973.5834350585938	953.6995849609375	-120.3195953369141	1096.249267578125	970.1749877929688	-147.8849945068359	1103.74560546875	958.5516967773438	-415.4776000976562	1059.624877929688	486.1293640136719	-422.3726806640625	1029.772216796875	626.4874267578125	-455.5815124511719	902.8110961914062	41.58976745605469	-444.353759765625	972.9285278320312	250.2888488769531	-447.5036315917969	1107.571533203125	32.12616729736328	-453.428466796875	1062.441162109375	31.57121467590332	-395.7792663574219	1002.359130859375	31.57682800292969	-490.3043518066406	855.4832763671875	37.53115081787109	-365.6781311035156	1035.980224609375	506.8230285644531	-148.743896484375	1051.97021484375	777.2596435546875	-114.3229751586914	936.2206420898438	34.65372467041016	-158.6969451904297	1010.118896484375	386.1902770996094	-145.7859802246094	1152.98583984375	28.40730285644531	-196.5393524169922	1091.279541015625	34.54535293579102	-236.4097137451172	1061.007202148438	36.02516937255859	-143.3900909423828	887.9931030273438	36.64844512939453	-214.4520263671875	
4	0.03	900.3056030273438	1020.4521484375	-197.9748992919922	883.5482177734375	1011.814453125	-374.4205017089844	895.3770751953125	1071.777221679688	-292.3072814941406	1138.15185546875	1273.555541992188	-300.43896484375	871.7361450195312	1205.980346679688	-295.8772888183594	925.7664794921875	1473.85546875	-308.8204345703125	1106.129760742188	1386.7666015625	-305.7247314453125	866.5517578125	1337.011596679688	-227.2218170166016	904.1949462890625	1432.451538085938	-408.2673950195312	1007.266540527344	1434.49658203125	-481.4752502441406	995.9918212890625	1303.947387695312	-554.2674560546875	1030.075317382812	1088.494384765625	-562.02490234375	966.1253662109375	1074.302978515625	-478.2646789550781	1135.5205078125	859.5382080078125	-484.3095397949219	1079.561401367188	841.4644775390625	-544.9445190429688	1057.696411132812	980.7198486328125	-563.14501953125	1160.33447265625	676.3488159179688	-457.5707092285156	1117.469482421875	763.2628173828125	-535.4719848632812	1162.764282226562	778.4283447265625	-482.5404052734375	993.7321166992188	1443.3681640625	-131.6764678955078	986.9176635742188	1375.467407226562	-65.23412322998047	970.7322387695312	1107.548095703125	-35.47884368896484	983.4873657226562	1085.9248046875	-131.9899444580078	1119.10400390625	861.4864501953125	-81.16025543212891	1053.833740234375	843.9510498046875	-26.64986991882324	987.071044921875	1028.470336914062	-29.36837768554688	1132.005004882812	674.0570068359375	-101.0626754760742	1147.105102539062	760.6572875976562	-83.48393249511719	1095.400146484375	754.9749145507812	-26.85003471374512	960.2760009765625	1648.7939453125	-381.2379150390625	1112.26513671875	1690.341064453125	-232.5082550048828	1130.48828125	1698.572265625	-356.9296875	949.8341674804688	1633.7275390625	-244.9847106933594	991.5396118164062	946.663818359375	-462.8286743164062	973.6016235351562	953.7174682617188	-120.503173828125	1096.249633789062	970.1321411132812	-147.9851531982422	1103.876953125	958.5061645507812	-415.6292114257812	1059.67041015625	486.1226196289062	-422.471923828125	1029.830322265625	626.47509765625	-455.669921875	902.810546875	41.58533477783203	-444.3621826171875	972.9779663085938	250.2765808105469	-447.5686340332031	1107.568969726562	32.11269378662109	-453.425537109375	1062.45654296875	31.56971740722656	-395.7907409667969	1002.376647949219	31.57151031494141	-490.3023986816406	855.5089111328125	37.55619049072266	-365.6820373535156	1036.227172851562	506.8608093261719	-148.7858581542969	1051.967529296875	777.3104858398438	-114.4669723510742	936.2225341796875	34.67536163330078	-158.6998748779297	1010.205505371094	386.150634765625	-145.8890228271484	1152.9912109375	28.39808654785156	-196.5457458496094	1091.287109375	34.53266525268555	-236.4184722900391	1061.013061523438	36.03094100952148	-143.4031524658203	888.0027465820312	36.67076110839844	-214.4804077148438	
